<svg width="15" height="15" viewBox="0 0 15 15" fill="none" xmlns="http://www.w3.org/2000/svg">
<path d="M10 13.125V11.875C10 11.212 9.73661 10.5761 9.26777 10.1072C8.79893 9.63839 8.16304 9.375 7.5 9.375H3.75C3.08696 9.375 2.45107 9.63839 1.98223 10.1072C1.51339 10.5761 1.25 11.212 1.25 11.875V13.125" stroke="#8B5CF6" stroke-width="1.25" stroke-linecap="round" stroke-linejoin="round"/>
<path d="M5.625 6.875C7.00571 6.875 8.125 5.75571 8.125 4.375C8.125 2.99429 7.00571 1.875 5.625 1.875C4.24429 1.875 3.125 2.99429 3.125 4.375C3.125 5.75571 4.24429 6.875 5.625 6.875Z" stroke="#8B5CF6" stroke-width="1.25" stroke-linecap="round" stroke-linejoin="round"/>
<path d="M13.75 13.125V11.875C13.7496 11.3211 13.5652 10.783 13.2259 10.3452C12.8865 9.90741 12.4113 9.59473 11.875 9.45625" stroke="#8B5CF6" stroke-width="1.25" stroke-linecap="round" stroke-linejoin="round"/>
<path d="M10 1.95625C10.5378 2.09394 11.0144 2.40669 11.3548 2.84519C11.6952 3.2837 11.8799 3.82302 11.8799 4.37813C11.8799 4.93323 11.6952 5.47255 11.3548 5.91106C11.0144 6.34956 10.5378 6.66231 10 6.8" stroke="#8B5CF6" stroke-width="1.25" stroke-linecap="round" stroke-linejoin="round"/>
</svg>