<svg preserveAspectRatio="none" width="100%" height="100%" overflow="visible" style="display: block;" viewBox="0 0 22 22" fill="none" xmlns="http://www.w3.org/2000/svg">
<g id="Icon">
<path id="Vector" d="M12.9305 5.09025C13.185 5.21741 13.4655 5.2836 13.75 5.2836C14.0345 5.2836 14.315 5.21741 14.5695 5.09025L17.9236 3.41275C18.0634 3.34286 18.2189 3.30991 18.375 3.31702C18.5312 3.32413 18.683 3.37108 18.8159 3.45339C18.9488 3.5357 19.0585 3.65064 19.1345 3.78728C19.2105 3.92393 19.2502 4.07774 19.25 4.23408V15.9344C19.2499 16.1046 19.2024 16.2714 19.1129 16.4161C19.0234 16.5609 18.8953 16.6778 18.7431 16.7539L14.5695 18.8412C14.315 18.9683 14.0345 19.0345 13.75 19.0345C13.4655 19.0345 13.185 18.9683 12.9305 18.8412L9.0695 16.9107C8.81503 16.7835 8.53447 16.7173 8.25 16.7173C7.96553 16.7173 7.68497 16.7835 7.4305 16.9107L4.07642 18.5882C3.93649 18.6581 3.781 18.691 3.62473 18.6839C3.46847 18.6767 3.31664 18.6297 3.18369 18.5473C3.05074 18.4649 2.94109 18.3498 2.86518 18.213C2.78926 18.0763 2.74961 17.9223 2.75 17.7659V6.0665C2.75009 5.89631 2.79756 5.72951 2.88709 5.58477C2.97662 5.44003 3.10468 5.32307 3.25692 5.247L7.4305 3.15975C7.68497 3.03259 7.96553 2.9664 8.25 2.9664C8.53447 2.9664 8.81503 3.03259 9.0695 3.15975L12.9305 5.09025Z" stroke="var(--stroke-0, #9090A0)" stroke-width="1.65" stroke-linecap="round" stroke-linejoin="round"/>
<path id="Vector_2" d="M13.75 5.28367V19.0337" stroke="var(--stroke-0, #9090A0)" stroke-width="1.65" stroke-linecap="round" stroke-linejoin="round"/>
<path id="Vector_3" d="M8.25 2.96633V16.7163" stroke="var(--stroke-0, #9090A0)" stroke-width="1.65" stroke-linecap="round" stroke-linejoin="round"/>
</g>
</svg>
