<svg preserveAspectRatio="none" width="100%" height="100%" overflow="visible" style="display: block;" viewBox="0 0 29 10.9819" fill="none" xmlns="http://www.w3.org/2000/svg">
<g id="Group 1">
<path id="Vector" d="M4.68614 9.88018C4.78563 10.0613 4.80169 10.2476 4.73593 10.4411C4.67371 10.6364 4.55469 10.7803 4.38056 10.8743C4.18513 10.9844 3.9968 11.0093 3.81201 10.9524C3.63078 10.8956 3.49215 10.7785 3.39266 10.5974L0.0949679 4.61098C-0.004524 4.43166 -0.0258226 4.24703 0.0309791 4.05707C0.0878694 3.86888 0.212212 3.72153 0.400545 3.61678C0.567577 3.52269 0.748809 3.50138 0.947789 3.55288C1.14322 3.60081 1.28895 3.71443 1.38845 3.89374L4.68614 9.88018Z" fill="var(--fill-0, #5170FF)"/>
<path id="Vector_2" d="M15.159 7.54872C15.159 7.75822 15.0827 7.93045 14.9318 8.0671C14.7842 8.20561 14.6118 8.27305 14.4128 8.27305C14.1889 8.27305 14.0112 8.20561 13.8798 8.0671C13.7466 7.93045 13.6809 7.75822 13.6809 7.54872V0.717231C13.6809 0.514848 13.7519 0.344418 13.894 0.205941C14.0362 0.0692385 14.2156 0 14.4341 0C14.6225 0 14.7913 0.0692385 14.9388 0.205941C15.0844 0.344418 15.159 0.514848 15.159 0.717231V7.54872Z" fill="var(--fill-0, #5170FF)"/>
<path id="Vector_3" d="M25.613 10.5981C25.5135 10.7774 25.3643 10.891 25.1653 10.9389C24.9699 10.9852 24.785 10.9621 24.6109 10.868C24.4154 10.7579 24.2928 10.6123 24.2414 10.4277C24.1934 10.243 24.22 10.062 24.3195 9.88089L27.6173 3.89447C27.7167 3.71516 27.8606 3.59976 28.0507 3.54651C28.2391 3.49502 28.4293 3.52165 28.6194 3.62463C28.7845 3.72049 28.8983 3.86429 28.9604 4.0578C29.0262 4.24776 29.0102 4.4324 28.9107 4.61171L25.613 10.5981Z" fill="var(--fill-0, #5170FF)"/>
</g>
</svg>
