<svg preserveAspectRatio="none" width="100%" height="100%" overflow="visible" style="display: block;" viewBox="0 0 22 22" fill="none" xmlns="http://www.w3.org/2000/svg">
<g id="Icon">
<path id="Vector" d="M2.75 9.16667C2.74994 8.89998 2.80806 8.63649 2.92031 8.39457C3.03255 8.15266 3.19623 7.93815 3.39992 7.766L9.81658 2.26692C10.1475 1.98725 10.5667 1.83381 11 1.83381C11.4333 1.83381 11.8525 1.98725 12.1834 2.26692L18.6001 7.766C18.8038 7.93815 18.9674 8.15266 19.0797 8.39457C19.1919 8.63649 19.2501 8.89998 19.25 9.16667V17.4167C19.25 17.9029 19.0568 18.3692 18.713 18.713C18.3692 19.0568 17.9029 19.25 17.4167 19.25H4.58333C4.0971 19.25 3.63079 19.0568 3.28697 18.713C2.94315 18.3692 2.75 17.9029 2.75 17.4167V9.16667Z" stroke="var(--stroke-0, #5170FF)" stroke-width="2.29167" stroke-linecap="round" stroke-linejoin="round"/>
</g>
</svg>
