<svg preserveAspectRatio="none" width="100%" height="100%" overflow="visible" style="display: block;" viewBox="0 0 22 22" fill="none" xmlns="http://www.w3.org/2000/svg">
<g id="Icon">
<path id="Vector" d="M1.83333 8.25C2.56268 8.25 3.26215 8.53973 3.77788 9.05546C4.2936 9.57118 4.58333 10.2707 4.58333 11C4.58333 11.7293 4.2936 12.4288 3.77788 12.9445C3.26215 13.4603 2.56268 13.75 1.83333 13.75V15.5833C1.83333 16.0696 2.02649 16.5359 2.3703 16.8797C2.71412 17.2235 3.18044 17.4167 3.66667 17.4167H18.3333C18.8196 17.4167 19.2859 17.2235 19.6297 16.8797C19.9735 16.5359 20.1667 16.0696 20.1667 15.5833V13.75C19.4373 13.75 18.7378 13.4603 18.2221 12.9445C17.7064 12.4288 17.4167 11.7293 17.4167 11C17.4167 10.2707 17.7064 9.57118 18.2221 9.05546C18.7378 8.53973 19.4373 8.25 20.1667 8.25V6.41667C20.1667 5.93044 19.9735 5.46412 19.6297 5.1203C19.2859 4.77649 18.8196 4.58333 18.3333 4.58333H3.66667C3.18044 4.58333 2.71412 4.77649 2.3703 5.1203C2.02649 5.46412 1.83333 5.93044 1.83333 6.41667V8.25Z" stroke="var(--stroke-0, #5170FF)" stroke-width="1.65" stroke-linecap="round" stroke-linejoin="round"/>
<path id="Vector_2" d="M11.9167 4.58333V6.41667" stroke="var(--stroke-0, #5170FF)" stroke-width="1.65" stroke-linecap="round" stroke-linejoin="round"/>
<path id="Vector_3" d="M11.9167 15.5833V17.4167" stroke="var(--stroke-0, #5170FF)" stroke-width="1.65" stroke-linecap="round" stroke-linejoin="round"/>
<path id="Vector_4" d="M11.9167 10.0833V11.9167" stroke="var(--stroke-0, #5170FF)" stroke-width="1.65" stroke-linecap="round" stroke-linejoin="round"/>
</g>
</svg>
