<svg width="390" height="329" viewBox="0 0 390 329" fill="none" xmlns="http://www.w3.org/2000/svg">
<path d="M194.6 70.6L10 278.866L194.6 298.485V70.6Z" fill="white" fill-opacity="0.75" stroke="#1A1A24" stroke-width="1.7" stroke-linecap="round" stroke-linejoin="round"/>
<path d="M195 70.6V298.485L379.6 278.866L195 70.6Z" fill="#E8E4E0" fill-opacity="0.7" stroke="#1A1A24" stroke-width="1.7" stroke-linecap="round" stroke-linejoin="round"/>
<path d="M158.6 112.857L195 115.875" stroke="#1A1A24" stroke-width="0.75" stroke-linecap="round" stroke-linejoin="round"/>
<path d="M120.9 153.605L195 161.15" stroke="#1A1A24" stroke-width="0.75" stroke-linecap="round" stroke-linejoin="round"/>
<path d="M84.5 195.861L195 207.935" stroke="#1A1A24" stroke-width="0.75" stroke-linecap="round" stroke-linejoin="round"/>
<path d="M46.8 236.609L195 253.21" stroke="#1A1A24" stroke-width="0.75" stroke-linecap="round" stroke-linejoin="round"/>
<path d="M158.6 112.857L46.8 283.394" stroke="#1A1A24" stroke-width="0.75" stroke-linecap="round" stroke-linejoin="round"/>
<path d="M120.9 153.605L84.5 286.412" stroke="#1A1A24" stroke-width="0.75" stroke-linecap="round" stroke-linejoin="round"/>
<path d="M84.5 195.861L120.9 290.939" stroke="#1A1A24" stroke-width="0.75" stroke-linecap="round" stroke-linejoin="round"/>
<path d="M46.8 236.609L158.6 293.958" stroke="#1A1A24" stroke-width="0.75" stroke-linecap="round" stroke-linejoin="round"/>
<path d="M195 115.875L46.8 283.394" stroke="#1A1A24" stroke-width="0.75" stroke-linecap="round" stroke-linejoin="round"/>
<path d="M195 161.15L84.5 286.412" stroke="#1A1A24" stroke-width="0.75" stroke-linecap="round" stroke-linejoin="round"/>
<path d="M195 207.935L120.9 290.939" stroke="#1A1A24" stroke-width="0.75" stroke-linecap="round" stroke-linejoin="round"/>
<path d="M195 253.21L158.6 293.958" stroke="#1A1A24" stroke-width="0.75" stroke-linecap="round" stroke-linejoin="round"/>
<path d="M231.4 112.857L195 115.875" stroke="#1A1A24" stroke-width="0.75" stroke-linecap="round" stroke-linejoin="round"/>
<path d="M269.1 153.605L195 161.15" stroke="#1A1A24" stroke-width="0.75" stroke-linecap="round" stroke-linejoin="round"/>
<path d="M305.5 195.861L195 207.935" stroke="#1A1A24" stroke-width="0.75" stroke-linecap="round" stroke-linejoin="round"/>
<path d="M343.2 236.609L195 253.21" stroke="#1A1A24" stroke-width="0.75" stroke-linecap="round" stroke-linejoin="round"/>
<path d="M231.4 112.857V293.958" stroke="#1A1A24" stroke-width="0.75" stroke-linecap="round" stroke-linejoin="round"/>
<path d="M269.1 153.605V290.939" stroke="#1A1A24" stroke-width="0.75" stroke-linecap="round" stroke-linejoin="round"/>
<path d="M305.5 195.861V286.412" stroke="#1A1A24" stroke-width="0.75" stroke-linecap="round" stroke-linejoin="round"/>
<path d="M343.2 246.609V293.394" stroke="#1A1A24" stroke-width="0.75" stroke-linecap="round" stroke-linejoin="round"/>
<path d="M195 115.875L231.4 293.958" stroke="#1A1A24" stroke-width="0.75" stroke-linecap="round" stroke-linejoin="round"/>
<path d="M195 161.15L269.1 290.939" stroke="#1A1A24" stroke-width="0.75" stroke-linecap="round" stroke-linejoin="round"/>
<path d="M195 207.935L305.5 286.412" stroke="#1A1A24" stroke-width="0.75" stroke-linecap="round" stroke-linejoin="round"/>
<path d="M195 253.21L343.2 283.394" stroke="#1A1A24" stroke-width="0.75" stroke-linecap="round" stroke-linejoin="round"/>
<path d="M257.277 317.627C257.243 317.592 257.213 317.489 257.209 317.398C257.202 317.232 257.275 317.177 258.304 316.57C259.15 316.071 259.012 315.941 257.794 316.088C256.537 316.24 256.009 316.135 255.938 315.719C255.898 315.487 255.983 315.387 256.345 315.24C257.449 314.793 258.051 314.274 258.03 313.79C258.02 313.555 258.177 313.23 258.479 312.858C258.888 312.355 259.084 311.715 258.827 311.724C258.777 311.725 258.61 311.525 258.456 311.279C258.224 310.907 258.136 310.459 257.938 308.642C257.807 307.439 257.629 306.025 257.542 305.5C257.454 304.976 257.3 303.834 257.199 302.962C256.962 300.926 256.448 297.022 256.413 297.002C254.779 296.052 254.752 295.992 254.9 293.631C254.962 292.634 255.102 290.968 255.21 289.929C255.393 288.175 255.392 288.026 255.196 287.837C255.016 287.664 254.998 287.518 255.073 286.846C255.18 285.896 255.065 285.717 254.394 285.792C254.093 285.826 253.866 285.77 253.76 285.635C253.525 285.334 253.391 285.381 253.271 285.809C253.18 286.132 253.138 286.159 252.962 286.004C252.8 285.86 252.762 285.63 252.776 284.864L252.794 283.904L252.376 283.749C252.146 283.664 251.955 283.515 251.951 283.417C251.945 283.279 252.055 283.28 252.448 283.421C252.916 283.59 252.976 283.581 253.272 283.304C253.579 283.016 253.616 283.012 254.22 283.21C254.624 283.341 255.061 283.635 255.445 284.032C255.773 284.372 256.059 284.624 256.081 284.593C256.346 284.198 257.644 280.381 257.785 279.582C257.887 278.999 258.096 278.244 258.249 277.905C258.569 277.198 258.589 276.981 258.336 276.992C257.567 277.026 256.583 275.768 256.177 274.234C255.944 273.354 255.934 273.185 256.061 272.249C256.235 270.959 256.315 270.772 256.882 270.317C257.593 269.747 258.204 269.607 258.778 269.881C259.451 270.203 259.797 270.598 259.98 271.256C260.066 271.568 260.249 271.925 260.385 272.049C260.668 272.307 260.739 273.015 260.577 273.96C260.437 274.77 260.707 275.607 261.186 275.847C261.375 275.942 261.652 276.266 261.8 276.568C261.948 276.869 262.186 277.19 262.329 277.281C262.67 277.499 263.16 278.513 263.371 279.441C263.634 280.595 263.668 282.492 263.455 284.075C263.349 284.86 263.198 285.985 263.12 286.573C263.042 287.162 262.871 288.254 262.741 289.001C262.45 290.659 262.517 292.664 262.929 294.667L263.204 296.003L263.296 294.864C263.347 294.237 263.567 292.488 263.783 290.975L264.177 288.226L263.915 287.849C263.442 287.167 263.433 286.854 263.862 286.022C264.464 284.854 264.499 284.152 264.082 281.596C263.741 279.504 263.996 278.144 264.864 277.428C265.104 277.23 265.503 276.899 265.75 276.692C266.292 276.24 266.524 275.704 266.493 274.979C266.473 274.541 266.378 274.347 265.975 273.931C265.703 273.65 265.416 273.423 265.336 273.427C265.257 273.43 265.05 273.281 264.875 273.095C264.638 272.843 264.573 272.666 264.619 272.399C264.653 272.203 264.614 271.852 264.534 271.621C264.323 271.014 264.555 269.837 264.983 269.343C265.945 268.233 266.59 267.84 267.517 267.8C268.118 267.774 268.485 267.97 269.039 268.612C269.378 269.004 269.848 270.625 269.887 271.537C269.916 272.198 269.508 273.075 268.932 273.59C268.345 274.114 268.312 274.3 268.693 274.954C268.979 275.446 269.718 275.847 270.715 276.049C271.489 276.207 271.873 276.551 272.167 277.353C272.301 277.717 272.427 278.038 272.447 278.066C272.483 278.117 273.974 276.968 274.431 276.538C274.648 276.334 274.642 276.309 274.248 275.789C273.61 274.948 273.256 272.591 273.602 271.49C273.94 270.42 274.951 269.606 276.002 269.561C276.476 269.54 276.678 269.614 277.063 269.953C277.635 270.454 278.051 271.285 278.188 272.201C278.243 272.571 278.337 272.906 278.397 272.945C278.61 273.084 278.528 273.726 278.199 274.484C277.897 275.18 277.865 275.721 278.127 275.71C278.176 275.708 278.352 275.831 278.517 275.983C278.682 276.136 279.296 276.601 279.88 277.018C280.465 277.435 281.094 277.937 281.278 278.133C282.549 279.487 283.352 281.877 283.596 285.03C283.744 286.942 283.735 286.98 282.787 288.232L282.211 288.994L282.184 290.598C282.142 293.018 282.022 295.142 281.902 295.577C281.829 295.841 281.634 296.045 281.295 296.213C280.829 296.444 280.779 296.527 280.563 297.421C280.227 298.807 280.217 299.416 280.519 300.076C280.659 300.382 281.107 301.352 281.514 302.231C282.722 304.838 282.965 305.418 283.587 307.177C283.913 308.1 284.376 309.351 284.616 309.957C284.993 310.911 285.029 311.089 284.887 311.27C284.744 311.45 284.759 311.594 284.991 312.334C285.14 312.804 285.24 313.263 285.214 313.353C285.14 313.614 282.763 314.55 281.881 314.664C280.942 314.786 280.734 314.619 281.207 314.123C281.873 313.423 282.076 313.086 281.991 312.82C281.944 312.674 281.992 312.387 282.098 312.178C282.282 311.817 282.279 311.791 282.035 311.585C281.738 311.334 281.47 310.812 281.055 309.675C280.892 309.227 280.708 308.802 280.646 308.73C280.584 308.659 280.528 308.502 280.522 308.381C280.517 308.26 280.004 307.108 279.383 305.819L278.254 303.477L278.081 303.916C277.722 304.824 276.975 307.653 276.766 308.891C276.052 313.117 275.975 313.463 275.683 313.766C275.465 313.994 275.399 314.206 275.416 314.629C275.445 315.363 275.363 315.504 274.789 315.701C274.526 315.791 273.985 315.978 273.588 316.116C272.919 316.349 271.814 316.448 271.306 316.321C270.857 316.209 271.09 315.796 271.957 315.165C272.802 314.551 273.286 313.936 272.911 313.952C272.821 313.956 272.647 313.881 272.523 313.785C272.31 313.619 272.309 313.572 272.505 312.757C272.73 311.825 272.971 310.45 273.106 309.333C273.153 308.941 273.279 308.01 273.386 307.264C273.493 306.519 273.622 305.556 273.672 305.124C273.841 303.688 274.056 302.501 274.5 300.549C274.742 299.485 274.967 298.343 275 298.01L275.06 297.404L274.564 297.426C273.995 297.45 274.001 297.463 273.811 295.756C273.698 294.738 273.205 290.92 273.179 290.86C273.172 290.844 272.954 290.767 272.695 290.689C271.795 290.419 271.661 290.218 271.459 288.824C271.359 288.133 271.265 287.55 271.25 287.53C271.236 287.509 271.139 287.534 271.036 287.585C270.891 287.658 270.877 287.762 270.974 288.052C271.113 288.467 271.572 291.565 271.834 293.858C271.927 294.675 272.041 295.536 272.088 295.771C272.193 296.307 272.67 301.802 272.618 301.869C272.566 301.934 271.306 302.346 270.617 302.524L270.073 302.664L270.014 303.514C269.936 304.622 269.745 306.619 269.572 308.139C269.371 309.894 269.513 310.673 270.165 311.41C270.819 312.149 271.092 312.687 271.005 313.067C270.943 313.341 270.872 313.362 270.172 313.316L269.406 313.267L269.286 313.835C269.103 314.698 268.551 315.417 268.057 315.438C267.707 315.454 267.64 315.399 267.554 315.035C267.448 314.581 267.495 314.043 267.725 313.072C267.939 312.17 267.845 310.978 267.415 309.119C267.002 307.332 266.609 305.252 266.452 304.019C266.397 303.592 266.336 303.226 266.317 303.205C266.297 303.184 265.799 303.091 265.211 302.998C264.623 302.905 263.935 302.761 263.683 302.677L263.225 302.524L263.167 301.18C263.135 300.441 263.125 299.149 263.146 298.308L263.183 296.78L262.733 296.884C262.257 296.993 261.715 297.104 261.544 297.128C261.273 297.166 261.864 302.425 262.385 304.621C262.65 305.736 262.811 308.015 262.699 309.074C262.641 309.623 262.63 311.283 262.675 312.764C262.75 315.273 262.739 315.472 262.517 315.701C262.358 315.865 262.286 316.115 262.3 316.45C262.327 317.073 262.162 317.199 261.093 317.372C260.108 317.532 257.36 317.716 257.277 317.627L257.277 317.627ZM271.341 283.364L271.322 282.317L271.138 283.247C271.036 283.758 270.918 284.291 270.874 284.43C270.807 284.646 270.836 284.663 271.078 284.547C271.336 284.423 271.359 284.322 271.341 283.364ZM203.837 319.395C202.954 319.34 201.606 319.011 201.201 318.75C200.828 318.51 200.803 318.445 200.769 317.661C200.741 317.026 200.678 316.782 200.506 316.642C200.293 316.468 200.276 316.233 200.232 312.842C200.16 307.394 200.071 306.334 199.492 304.059C199.381 303.623 199.283 303.097 199.274 302.889C199.265 302.682 199.212 302.548 199.156 302.592C198.925 302.773 198.647 306.345 198.718 308.226C198.786 310.044 199.234 316.031 199.329 316.397C199.379 316.59 199.341 316.819 199.234 316.97C199.135 317.108 199.051 317.534 199.046 317.917L199.038 318.612L197.958 319.063C196.787 319.551 195.175 319.837 194.866 319.612C194.591 319.411 194.805 319.03 195.418 318.629C196.114 318.173 196.262 317.994 196.246 317.624C196.238 317.449 196.311 317.222 196.407 317.121C196.665 316.851 196.612 316.643 196.228 316.416C195.902 316.224 195.884 316.165 195.832 315.086C195.802 314.465 195.68 313.259 195.56 312.406C195.143 309.437 194.988 307.439 194.833 303.039L194.676 298.614L194.107 298.718C193.257 298.873 193.036 298.644 193.016 297.586C193.008 297.127 193.102 295.774 193.226 294.581C193.448 292.436 193.433 292.055 193.129 292.206C193.044 292.249 192.886 292.212 192.779 292.125C192.525 291.917 191.254 289.586 190.762 288.427C190.551 287.929 190.325 287.447 190.26 287.356C190.003 286.993 190.596 284.421 191.58 281.629C191.78 281.06 192.019 280.284 192.11 279.904C192.2 279.524 192.339 279.103 192.417 278.969C192.538 278.763 193.766 277.942 193.967 277.934C194.003 277.932 194.325 277.758 194.683 277.548C195.041 277.337 195.362 277.164 195.395 277.162C195.429 277.161 195.725 276.947 196.054 276.687C196.62 276.24 196.652 276.182 196.627 275.618C196.608 275.171 196.506 274.894 196.219 274.512C195.677 273.789 195.536 272.883 195.848 272.115C195.978 271.793 196.081 271.452 196.077 271.356C196.061 271.019 196.53 269.946 196.807 269.684C197.239 269.277 198.553 269.121 199.156 269.404C200.159 269.875 200.43 270.654 200.417 273.017C200.408 274.595 200.386 274.728 200.052 275.325C199.628 276.081 199.626 276.136 199.995 276.5C200.275 276.776 201.719 277.598 201.909 277.59C202.271 277.574 203.617 278.439 204.119 279.011C204.669 279.636 204.73 279.774 204.966 280.941C205.106 281.633 205.34 282.991 205.485 283.96C205.629 284.929 205.816 286.102 205.9 286.567C206.056 287.435 206.334 289.687 206.561 291.928C206.632 292.627 206.765 293.739 206.855 294.398C207.102 296.187 207.098 296.388 206.806 296.49C206.572 296.572 206.564 296.643 206.679 297.533C206.821 298.615 206.682 299.196 206.118 299.881C205.845 300.212 205.719 300.267 205.374 300.207C205.146 300.167 204.851 300.05 204.72 299.947C204.496 299.772 204.493 299.736 204.662 299.403C204.805 299.122 204.813 298.957 204.7 298.631C204.59 298.314 204.595 298.091 204.723 297.68C204.932 297.011 204.937 297.047 204.619 296.927C204.391 296.84 204.343 296.697 204.28 295.917C204.119 293.92 203.747 291.005 203.542 290.124C203.422 289.611 203.316 288.993 203.305 288.751C203.295 288.509 203.235 288.313 203.172 288.316C203.047 288.321 203.168 289.981 203.451 292.134C203.697 294.003 203.917 296.784 203.844 297.102C203.811 297.248 203.713 297.371 203.627 297.375C203.396 297.385 203.401 298.966 203.653 304.892C203.774 307.734 203.848 310.827 203.817 311.764C203.787 312.702 203.759 314.171 203.755 315.03C203.751 316.137 203.701 316.625 203.585 316.711C203.276 316.938 203.444 317.368 204.165 318.196C204.879 319.016 205.018 319.471 204.546 319.44C204.426 319.432 204.107 319.412 203.837 319.395ZM194.071 286.227C194.147 285.6 194.231 284.83 194.257 284.517C194.303 283.978 194.29 283.993 194.02 284.811C193.863 285.286 193.716 285.881 193.695 286.132C193.673 286.384 193.586 286.663 193.501 286.752C193.375 286.884 193.387 286.985 193.568 287.314C193.841 287.812 193.893 287.7 194.071 286.227ZM231.151 318.071C230.583 317.933 230.635 317.744 231.415 317.106C232.13 316.521 232.941 315.676 232.934 315.522C232.931 315.454 232.792 315.404 232.624 315.411C232.271 315.426 232.242 315.268 232.453 314.45C232.536 314.128 232.667 313.3 232.746 312.61C233.171 308.847 233.438 306.979 233.829 305.004C235.153 298.319 235.103 298.818 234.445 298.907L233.99 298.968L233.87 298.122C233.804 297.657 233.64 296.706 233.504 296.01C233.369 295.314 233.237 294.255 233.211 293.657L233.163 292.57L232.194 292.07L231.226 291.57L231.114 289.766C231.013 288.154 230.907 287.705 230.718 288.099C230.685 288.169 230.411 288.31 230.109 288.412C229.807 288.515 229.535 288.686 229.505 288.793C229.475 288.9 229.549 289.358 229.671 289.811C229.929 290.769 230.19 292.684 230.497 295.857C230.697 297.924 230.934 299.933 231.197 301.796L231.299 302.514L230.779 302.821C230.494 302.989 229.84 303.299 229.327 303.509C228.626 303.796 228.383 303.962 228.352 304.177C228.328 304.334 228.162 305.698 227.983 307.208C227.609 310.347 227.644 310.895 228.267 311.724C228.813 312.449 229.192 313.252 229.163 313.621C229.135 313.985 228.655 314.123 228.103 313.927C227.761 313.805 227.749 313.819 227.64 314.452C227.338 316.21 226.44 317.376 226.019 316.557C225.814 316.16 225.794 314.929 225.975 313.873C226.108 313.097 226.104 312.77 225.952 311.879C225.777 310.852 225.299 308.412 224.959 306.806C224.869 306.381 224.746 305.687 224.686 305.265L224.576 304.496L223.489 304.298C221.995 304.024 221.799 303.869 221.762 302.934C221.746 302.527 221.757 301.586 221.786 300.844C221.815 300.101 221.851 298.983 221.867 298.358C221.897 297.156 222.398 292.26 222.641 290.797C222.822 289.705 222.8 289.204 222.548 288.702C222.258 288.126 222.28 287.907 222.732 286.813L223.139 285.83L222.931 284.338C222.666 282.441 222.558 280.001 222.712 279.37C222.882 278.67 223.102 278.402 223.972 277.836C225.133 277.081 225.193 277.002 225.174 276.258C225.16 275.657 225.115 275.568 224.595 275.091C224.285 274.807 223.869 274.469 223.672 274.341C223.371 274.145 223.312 274.02 223.31 273.576C223.308 273.284 223.238 272.869 223.152 272.653C222.896 272.003 223.18 270.936 223.797 270.23C224.711 269.184 225.036 268.999 226.039 268.956C226.793 268.923 227.035 268.966 227.249 269.172C227.981 269.878 228.621 271.679 228.524 272.763C228.468 273.382 228.231 274.038 228.059 274.046C228.011 274.048 227.786 274.256 227.559 274.508C226.814 275.336 227.145 276.24 228.386 276.765C228.659 276.881 229.077 276.996 229.313 277.02C229.964 277.086 230.111 277.183 230.557 277.839C230.831 278.241 231.098 278.919 231.355 279.864L231.741 281.285L232.032 280.434C232.282 279.702 232.83 278.946 233.119 278.934C233.201 278.93 234.524 278.172 234.591 278.09C234.612 278.065 234.422 277.759 234.17 277.409C233.918 277.06 233.662 276.538 233.603 276.25C233.426 275.396 233.373 273.36 233.513 272.788C233.776 271.714 234.871 270.931 235.92 271.067C237.11 271.222 237.613 271.951 237.979 274.049C238.186 275.242 238.186 275.26 237.898 275.967C237.738 276.359 237.612 276.783 237.617 276.909C237.628 277.17 238.739 278.032 239.986 278.749C240.454 279.018 240.929 279.298 241.042 279.371C241.359 279.576 242.242 281.083 242.502 281.861C243.001 283.355 243.533 285.761 243.77 287.592L243.893 288.549L243.088 289.574L242.283 290.599L242.322 292.049C242.343 292.846 242.344 293.691 242.325 293.926C242.305 294.161 242.274 294.737 242.254 295.206C242.176 297.097 242.067 297.396 241.255 297.938C240.65 298.343 240.555 298.476 240.265 299.325L239.944 300.265L240.191 300.966C240.451 301.707 241.467 304.164 242.094 305.568C242.688 306.899 242.794 307.163 243.304 308.565C243.569 309.295 244.046 310.602 244.365 311.471C244.792 312.637 244.911 313.099 244.819 313.239C244.745 313.354 244.738 313.688 244.803 314.088C244.892 314.636 244.872 314.784 244.688 314.96C244.566 315.077 244.36 315.18 244.231 315.188C244.101 315.196 243.777 315.332 243.51 315.49C242.792 315.917 241.896 316.258 241.282 316.337C240.843 316.394 240.729 316.36 240.685 316.161C240.652 316.011 240.705 315.912 240.821 315.907C240.926 315.903 241.242 315.618 241.525 315.274C241.952 314.755 242.026 314.583 241.958 314.261C241.913 314.048 241.936 313.783 242.008 313.672C242.113 313.51 242.068 313.444 241.781 313.342C241.465 313.23 241.41 313.131 241.332 312.53C241.223 311.693 238.152 305.171 237.873 305.183C237.49 305.2 236.907 307.324 236.397 310.566C236.292 311.234 236.118 312.34 236.009 313.025C235.901 313.71 235.821 314.449 235.83 314.668C235.84 314.891 235.745 315.178 235.614 315.319C235.445 315.502 235.388 315.748 235.408 316.201C235.441 316.984 235.262 317.221 234.518 317.379C234.198 317.447 233.666 317.603 233.335 317.726C232.651 317.981 231.518 318.16 231.151 318.071L231.151 318.071ZM229.824 285.509C230.047 285.252 230.079 284.132 229.871 283.789C229.778 283.635 229.64 284.102 229.358 285.515C229.295 285.833 229.544 285.829 229.824 285.509ZM311.677 314.294C311.561 313.995 311.568 313.563 311.713 312.342C311.921 310.581 311.915 310.527 311.032 307.052C310.787 306.087 310.501 304.791 310.395 304.172C310.111 302.496 310.064 302.413 309.429 302.44C308.898 302.463 307.867 302.322 307.499 302.175C307.337 302.11 307.294 302.372 307.224 303.844C307.179 304.804 307.146 306.77 307.152 308.213C307.164 311.136 307.126 311.477 306.794 311.491C306.608 311.499 306.568 311.607 306.588 312.05C306.601 312.352 306.545 312.664 306.465 312.744C306.311 312.897 305.248 313.281 305.084 313.243C304.955 313.214 303.095 313.502 302.86 313.588C302.758 313.626 302.617 313.871 302.547 314.134C302.402 314.684 301.974 315.035 301.597 314.914C301.243 314.8 301.003 313.887 301.032 312.756C301.054 311.866 301.05 311.854 300.695 311.728C300.28 311.58 300.217 311.283 300.554 311.053C300.787 310.894 300.787 310.887 300.494 310.093C300.332 309.654 299.836 308.448 299.391 307.414C298.946 306.38 298.313 304.876 297.985 304.072C297.303 302.403 297.378 302.458 295.661 302.378C293.739 302.288 293.96 302.149 293.695 303.618C293.567 304.325 293.227 305.968 292.939 307.267C292.332 310.014 292.264 310.728 292.517 311.732C292.673 312.35 292.678 312.568 292.546 313.106C292.371 313.823 292.089 313.961 292.004 313.372C291.974 313.159 291.923 312.986 291.891 312.987C291.859 312.988 291.558 313.248 291.221 313.564C290.885 313.88 290.427 314.219 290.202 314.317C289.671 314.55 288.736 314.591 288.727 314.382C288.723 314.294 289.048 313.84 289.45 313.374C290.329 312.354 290.693 311.52 290.963 309.906C291.196 308.513 291.546 301.942 291.395 301.8C291.339 301.748 290.884 301.572 290.382 301.41C288.996 300.961 289.038 301.032 289.287 299.537C289.846 296.178 289.978 295.307 289.968 295.063C289.959 294.853 289.829 294.784 289.334 294.727C288.95 294.682 288.68 294.573 288.63 294.442C288.56 294.256 288.833 292.282 289.07 291.264C289.116 291.067 289.208 290.597 289.275 290.221C289.36 289.741 289.486 289.476 289.694 289.337C289.894 289.203 290.072 288.845 290.24 288.238C290.377 287.743 290.486 287.282 290.483 287.214C290.475 287.023 289.964 287.098 289.633 287.339C289.168 287.677 288.614 287.642 288.173 287.247C287.957 287.055 287.779 286.851 287.777 286.794C287.775 286.738 287.972 286.569 288.217 286.42C288.618 286.175 288.64 286.132 288.442 285.978C288.167 285.764 288.164 285.685 288.426 285.561C288.542 285.507 288.769 285.363 288.932 285.241C289.326 284.946 289.728 284.941 290.616 285.219L291.356 285.451L291.462 284.934C291.52 284.65 291.627 283.841 291.699 283.136C291.919 280.991 292.3 279.086 292.66 278.329C292.9 277.825 292.993 277.435 292.974 277.007C292.952 276.487 293.013 276.32 293.412 275.827C293.997 275.103 294.01 274.737 293.45 274.761C293.228 274.771 292.936 274.69 292.801 274.581C292.666 274.473 292.374 274.389 292.153 274.397C291.887 274.405 291.639 274.29 291.421 274.059C291.106 273.723 291.092 273.654 291.098 272.477C291.107 270.946 291.344 269.951 291.869 269.245C292.449 268.464 292.784 268.223 293.489 268.08C294.346 267.906 295.008 268.251 295.573 269.168C296.465 270.616 296.632 272.342 295.982 273.402C295.591 274.039 295.57 274.386 295.923 274.371C296.314 274.354 296.622 274.583 296.722 274.966C296.792 275.232 296.938 275.346 297.337 275.447C298.271 275.683 298.644 275.825 298.774 275.992C299.065 276.37 299.743 277.914 300.177 279.187C300.433 279.936 300.67 280.546 300.703 280.542C300.777 280.532 301.601 278.302 301.9 277.304C302.018 276.909 302.257 275.964 302.43 275.205C302.603 274.446 302.847 273.707 302.972 273.564C303.353 273.127 303.245 272.815 302.684 272.73C302.279 272.669 302.086 272.519 301.613 271.903C300.973 271.07 300.823 270.63 300.633 269.028C300.518 268.058 300.532 267.864 300.76 267.264C301.118 266.32 301.732 265.829 302.571 265.816C303.672 265.798 304.248 266.261 304.545 267.401C304.645 267.787 304.838 268.187 304.973 268.289C305.231 268.484 305.227 268.411 305.072 270.376C305.003 271.25 305.267 271.928 305.708 272.01C305.905 272.047 306.132 272.205 306.213 272.362C306.294 272.519 306.622 272.96 306.942 273.344C307.659 274.202 307.763 274.461 308.005 276.004L308.197 277.23L309.023 276.555C310.299 275.513 310.493 275.227 310.459 274.442C310.433 273.851 310.391 273.758 310.072 273.597C309.539 273.326 308.643 272.42 308.639 272.145C308.632 271.68 308.612 271.474 308.515 270.819C308.331 269.578 308.805 268.575 309.98 267.719C310.838 267.094 311.77 267.064 312.444 267.639C312.712 267.869 313.069 268.312 313.236 268.624C313.566 269.241 313.956 270.551 313.981 271.13C314.003 271.642 313.582 272.551 313.213 272.786C312.565 273.198 312.388 273.506 312.48 274.058C312.594 274.734 313.008 275.118 313.815 275.295C315.314 275.622 315.374 275.65 315.766 276.214L316.15 276.766L316.552 275.645C317.033 274.31 317.178 274.088 317.877 273.629C318.171 273.436 318.517 273.178 318.646 273.056C318.876 272.837 318.874 272.829 318.535 272.545C318.068 272.154 317.856 271.347 317.796 269.724C317.74 268.226 317.932 267.461 318.506 266.89C318.896 266.501 319.974 266.192 320.576 266.296C321.528 266.46 322.254 267.462 322.307 268.684C322.32 268.989 322.394 269.28 322.471 269.331C322.73 269.5 322.586 270.741 322.247 271.254C321.712 272.063 321.855 272.3 323.32 273.028C324.813 273.77 325.87 274.574 326.302 275.296C327.322 277 328.432 282.744 327.972 283.933C327.9 284.116 327.544 284.63 327.179 285.075L326.515 285.884L326.505 288.934C326.499 290.612 326.459 292.178 326.414 292.414C326.356 292.723 326.18 292.947 325.784 293.217C325.276 293.563 325.215 293.67 324.974 294.639L324.713 295.687L325.129 296.622C325.357 297.137 326.058 298.653 326.686 299.991C327.314 301.329 328.012 302.926 328.238 303.541C328.815 305.11 329.651 308.304 329.647 308.921C329.645 309.205 329.694 309.639 329.756 309.886C329.865 310.322 329.855 310.338 329.349 310.513C329.063 310.612 328.397 310.875 327.869 311.098C326.801 311.547 325.353 311.805 325.215 311.571C325.115 311.4 325.211 311.286 326.015 310.621C326.57 310.162 326.601 310.101 326.542 309.606C326.505 309.294 326.533 309.076 326.611 309.073C326.683 309.07 326.738 308.971 326.733 308.855C326.728 308.738 326.677 308.644 326.619 308.647C326.561 308.649 326.369 308.498 326.193 308.311C325.961 308.063 325.842 307.754 325.758 307.175C325.674 306.596 325.394 305.867 324.726 304.489C323.272 301.489 322.778 300.601 322.56 300.6C322.347 300.598 321.28 304.251 321.307 304.887C321.314 305.045 321.275 305.323 321.22 305.505C321.166 305.687 321.016 306.797 320.888 307.973C320.625 310.382 320.544 310.754 320.284 310.765C320.099 310.773 320.02 311.064 319.992 311.842C319.978 312.234 319.929 312.28 319.373 312.419C319.04 312.501 318.347 312.739 317.831 312.946C316.668 313.414 315.41 313.518 315.455 313.141C315.472 313.006 315.949 312.506 316.516 312.031C317.56 311.155 317.744 310.831 317.266 310.708C317.06 310.655 317.017 310.569 317.067 310.31C317.301 309.109 317.903 303.615 318.037 301.462C318.056 301.166 318.258 300.168 318.487 299.243C319.073 296.875 319.516 294.366 319.365 294.268C319.297 294.223 319.113 294.231 318.955 294.284C318.797 294.338 318.634 294.323 318.591 294.251C318.501 294.098 318.015 291.616 317.722 289.811C317.4 287.831 317.36 287.717 316.934 287.575C316.383 287.391 316.14 287.128 316.121 286.695C316.112 286.484 316.071 286.276 316.031 286.233C315.99 286.189 315.638 286.338 315.248 286.562C314.67 286.894 314.551 287.022 314.604 287.251C314.64 287.405 314.802 288.037 314.963 288.654C315.124 289.271 315.333 290.156 315.428 290.62C315.599 291.459 316.239 296.848 316.479 299.474L316.605 300.851L316.141 301.154C315.886 301.32 315.31 301.591 314.86 301.756L314.042 302.055L313.838 303.753C313.438 307.068 313.31 308.888 313.437 309.422C313.51 309.726 313.793 310.199 314.135 310.587C314.732 311.266 314.985 311.791 314.815 311.998C314.761 312.064 314.418 312.152 314.053 312.194C313.395 312.269 313.389 312.275 313.269 312.842C313.092 313.686 312.839 314.239 312.532 314.456C312.101 314.761 311.841 314.712 311.678 314.294L311.677 314.294ZM303.347 311.99L303.698 311.626L303.179 311.648C302.708 311.668 302.662 311.702 302.676 312.024C302.696 312.467 302.897 312.457 303.347 311.99ZM302.491 309.86C302.603 309.738 302.69 309.511 302.683 309.355C302.676 309.2 302.89 308.816 303.158 308.503L303.645 307.933L303.224 307.559C302.75 307.138 302.761 307.19 302.45 303.948C302.346 302.86 302.15 301.432 302.015 300.775C301.88 300.118 301.671 298.659 301.552 297.533C301.432 296.407 301.271 294.882 301.193 294.145L301.05 292.805L300.469 292.518C299.688 292.131 299.479 291.782 299.436 290.792C299.417 290.347 299.354 289.952 299.297 289.914C299.239 289.877 299 290.083 298.765 290.373C298.342 290.894 298.339 290.908 298.436 291.834C298.49 292.349 298.599 293.533 298.68 294.465C298.847 296.413 299.142 298.033 299.645 299.768C299.839 300.436 300.038 301.395 300.088 301.899C300.137 302.404 300.242 303.026 300.322 303.283C300.738 304.627 301.967 309.76 301.988 310.24C301.992 310.319 302.246 310.127 302.491 309.861L302.491 309.86ZM306.91 298.471C306.931 298.022 306.986 297.333 307.033 296.941C307.237 295.237 307.468 292.698 307.423 292.651C307.396 292.622 307.038 292.655 306.627 292.723L305.879 292.847L305.908 293.527C305.924 293.902 306.002 294.512 306.082 294.883C306.161 295.254 306.327 296.399 306.451 297.427C306.575 298.455 306.721 299.295 306.775 299.292C306.829 299.29 306.89 298.92 306.91 298.471ZM307.949 289.647C308.169 288.263 308.157 287.555 307.909 287.335C307.527 286.998 307.522 286.415 307.893 285.316C308.197 284.414 308.243 284.09 308.213 283.059C308.16 281.262 308.028 281.083 307.77 282.461C307.651 283.094 307.436 284.09 307.291 284.674C306.928 286.136 306.916 287.518 307.248 289.413C307.553 291.152 307.664 291.542 307.725 291.095C307.747 290.938 307.848 290.286 307.949 289.647L307.949 289.647ZM290.922 287.248C290.839 287.159 290.668 287.648 290.498 288.464C290.382 289.017 290.38 289.22 290.488 289.257C290.628 289.305 291.044 287.378 290.922 287.248ZM298.472 287.042C298.692 286.572 298.972 285.888 299.093 285.523C299.305 284.888 299.304 284.822 299.083 283.992C298.807 282.957 298.772 282.907 298.637 283.35C298.579 283.538 298.359 284.218 298.148 284.861C297.834 285.815 297.771 286.203 297.804 286.968C297.826 287.484 297.895 287.904 297.958 287.901C298.02 287.899 298.251 287.512 298.472 287.042ZM315.228 283.841C315.324 283.726 315.334 283.41 315.26 282.854C315.2 282.403 315.113 282.088 315.067 282.153C315.022 282.218 314.892 282.708 314.779 283.242L314.573 284.213L314.831 284.111C314.972 284.055 315.151 283.933 315.228 283.841Z" fill="black"/>
<path d="M152.703 316.952C152.736 316.917 152.767 316.814 152.771 316.723C152.78 316.557 152.707 316.502 151.682 315.889C150.839 315.385 150.978 315.255 152.195 315.41C153.451 315.57 153.979 315.468 154.053 315.053C154.094 314.82 154.01 314.72 153.649 314.571C152.548 314.117 151.949 313.594 151.973 313.11C151.984 312.875 151.83 312.549 151.53 312.176C151.124 311.67 150.932 311.029 151.189 311.039C151.24 311.041 151.408 310.842 151.563 310.596C151.798 310.226 151.888 309.779 152.097 307.963C152.236 306.761 152.423 305.348 152.514 304.824C152.604 304.3 152.766 303.159 152.872 302.288C153.122 300.253 153.661 296.352 153.695 296.332C155.335 295.393 155.363 295.333 155.23 292.972C155.174 291.974 155.044 290.307 154.943 289.268C154.771 287.512 154.773 287.364 154.97 287.176C155.151 287.004 155.17 286.858 155.099 286.186C154.998 285.235 155.115 285.057 155.785 285.136C156.086 285.172 156.313 285.117 156.42 284.983C156.657 284.683 156.791 284.731 156.908 285.16C156.997 285.484 157.038 285.511 157.215 285.356C157.379 285.214 157.418 284.984 157.408 284.218L157.397 283.257L157.816 283.106C158.046 283.022 158.238 282.874 158.243 282.776C158.25 282.638 158.14 282.638 157.746 282.777C157.277 282.943 157.217 282.934 156.922 282.654C156.617 282.365 156.581 282.361 155.975 282.554C155.571 282.684 155.131 282.975 154.745 283.37C154.414 283.707 154.127 283.958 154.106 283.926C153.843 283.53 152.569 279.704 152.433 278.904C152.335 278.321 152.13 277.565 151.979 277.225C151.664 276.516 151.645 276.299 151.898 276.311C152.667 276.35 153.659 275.098 154.075 273.567C154.313 272.688 154.324 272.519 154.203 271.583C154.037 270.291 153.958 270.104 153.394 269.646C152.687 269.071 152.077 268.927 151.501 269.198C150.826 269.515 150.478 269.908 150.291 270.565C150.202 270.876 150.017 271.232 149.88 271.356C149.596 271.612 149.52 272.319 149.677 273.265C149.811 274.076 149.536 274.912 149.056 275.148C148.866 275.242 148.587 275.565 148.437 275.865C148.287 276.166 148.047 276.485 147.904 276.575C147.561 276.791 147.065 277.802 146.848 278.729C146.577 279.881 146.531 281.777 146.735 283.362C146.836 284.148 146.98 285.273 147.054 285.862C147.128 286.451 147.292 287.545 147.418 288.292C147.698 289.952 147.619 291.957 147.195 293.957L146.911 295.291L146.826 294.151C146.779 293.525 146.571 291.774 146.364 290.26L145.987 287.508L146.251 287.133C146.728 286.454 146.739 286.141 146.316 285.306C145.721 284.135 145.69 283.432 146.124 280.879C146.478 278.789 146.232 277.427 145.368 276.706C145.129 276.507 144.732 276.173 144.486 275.965C143.947 275.509 143.719 274.972 143.755 274.247C143.776 273.809 143.873 273.616 144.279 273.202C144.553 272.923 144.841 272.698 144.92 272.702C144.999 272.706 145.208 272.558 145.384 272.373C145.622 272.122 145.688 271.946 145.644 271.679C145.612 271.482 145.652 271.132 145.734 270.901C145.949 270.296 145.724 269.117 145.3 268.621C144.344 267.505 143.702 267.108 142.775 267.062C142.175 267.032 141.806 267.226 141.248 267.864C140.907 268.254 140.427 269.872 140.382 270.784C140.349 271.445 140.752 272.324 141.324 272.843C141.908 273.37 141.939 273.556 141.555 274.208C141.265 274.699 140.524 275.094 139.526 275.291C138.75 275.444 138.365 275.785 138.065 276.585C137.929 276.948 137.801 277.268 137.781 277.297C137.745 277.347 136.261 276.189 135.807 275.756C135.591 275.55 135.597 275.526 135.994 275.009C136.638 274.171 137.006 271.816 136.667 270.714C136.336 269.641 135.33 268.821 134.28 268.769C133.805 268.745 133.603 268.818 133.215 269.154C132.641 269.652 132.22 270.481 132.077 271.395C132.019 271.765 131.923 272.1 131.863 272.138C131.649 272.276 131.727 272.918 132.051 273.679C132.349 274.376 132.377 274.918 132.116 274.905C132.066 274.902 131.89 275.024 131.724 275.176C131.558 275.327 130.942 275.789 130.354 276.202C129.767 276.615 129.135 277.113 128.95 277.308C127.67 278.654 126.852 281.039 126.588 284.191C126.428 286.102 126.438 286.139 127.377 287.397L127.949 288.163L127.966 289.768C127.992 292.187 128.099 294.312 128.216 294.748C128.288 295.012 128.481 295.217 128.82 295.388C129.283 295.622 129.333 295.705 129.544 296.601C129.871 297.988 129.877 298.598 129.571 299.255C129.429 299.56 128.975 300.528 128.562 301.405C127.338 304.003 127.091 304.582 126.458 306.337C126.126 307.257 125.656 308.506 125.412 309.111C125.029 310.062 124.991 310.24 125.133 310.421C125.274 310.603 125.259 310.747 125.021 311.485C124.87 311.954 124.767 312.412 124.792 312.502C124.865 312.765 127.236 313.715 128.117 313.835C129.055 313.963 129.264 313.797 128.795 313.298C128.133 312.594 127.932 312.256 128.019 311.99C128.067 311.844 128.02 311.557 127.916 311.347C127.734 310.985 127.737 310.959 127.983 310.755C128.281 310.506 128.553 309.985 128.974 308.85C129.14 308.404 129.327 307.98 129.389 307.909C129.452 307.838 129.508 307.681 129.515 307.56C129.522 307.44 130.042 306.29 130.671 305.006L131.814 302.671L131.985 303.111C132.337 304.021 133.067 306.854 133.269 308.094C133.956 312.324 134.031 312.67 134.321 312.976C134.538 313.205 134.602 313.417 134.582 313.84C134.548 314.574 134.63 314.715 135.202 314.916C135.465 315.007 136.004 315.198 136.401 315.338C137.069 315.575 138.173 315.682 138.682 315.558C139.132 315.449 138.901 315.034 138.037 314.398C137.197 313.779 136.717 313.16 137.091 313.179C137.181 313.183 137.356 313.109 137.48 313.014C137.695 312.85 137.696 312.802 137.505 311.987C137.286 311.053 137.053 309.676 136.926 308.559C136.881 308.167 136.761 307.235 136.659 306.488C136.557 305.742 136.434 304.778 136.386 304.347C136.226 302.91 136.019 301.721 135.587 299.766C135.352 298.701 135.134 297.557 135.103 297.224L135.046 296.618L135.542 296.643C136.111 296.671 136.105 296.684 136.306 294.978C136.426 293.96 136.943 290.145 136.969 290.085C136.976 290.069 137.194 289.994 137.454 289.918C138.355 289.654 138.49 289.453 138.701 288.061C138.806 287.37 138.903 286.788 138.918 286.768C138.933 286.747 139.029 286.773 139.132 286.824C139.276 286.898 139.29 287.003 139.191 287.292C139.049 287.706 138.571 290.801 138.295 293.092C138.196 293.909 138.077 294.768 138.029 295.003C137.92 295.539 137.408 301.031 137.461 301.098C137.512 301.163 138.769 301.584 139.457 301.766L140 301.909L140.054 302.759C140.125 303.868 140.303 305.866 140.467 307.387C140.656 309.143 140.51 309.921 139.854 310.654C139.195 311.389 138.919 311.925 139.003 312.306C139.063 312.58 139.134 312.602 139.835 312.561L140.6 312.516L140.717 313.084C140.895 313.948 141.442 314.671 141.936 314.696C142.286 314.713 142.354 314.659 142.442 314.295C142.551 313.842 142.507 313.304 142.283 312.331C142.075 311.428 142.176 310.237 142.617 308.38C143.042 306.596 143.448 304.518 143.613 303.286C143.67 302.86 143.733 302.495 143.753 302.474C143.773 302.453 144.271 302.363 144.86 302.274C145.449 302.184 146.137 302.044 146.39 301.962L146.849 301.812L146.916 300.469C146.953 299.73 146.97 298.437 146.955 297.597L146.927 296.069L147.377 296.175C147.851 296.287 148.393 296.402 148.564 296.427C148.834 296.466 148.211 301.722 147.676 303.914C147.404 305.027 147.229 307.306 147.334 308.365C147.388 308.914 147.389 310.575 147.335 312.055C147.244 314.564 147.254 314.763 147.475 314.993C147.632 315.158 147.703 315.409 147.687 315.744C147.656 316.366 147.82 316.493 148.888 316.673C149.871 316.84 152.618 317.04 152.703 316.952ZM138.853 282.601L138.879 281.554L139.057 282.485C139.156 282.998 139.271 283.531 139.314 283.67C139.38 283.887 139.35 283.904 139.109 283.786C138.852 283.66 138.83 283.559 138.853 282.601ZM206.13 319.056C207.013 319.006 208.363 318.685 208.77 318.427C209.144 318.19 209.17 318.125 209.209 317.341C209.241 316.706 209.305 316.463 209.478 316.323C209.692 316.151 209.71 315.916 209.776 312.525C209.882 307.077 209.978 306.018 210.571 303.747C210.685 303.312 210.786 302.786 210.797 302.579C210.807 302.371 210.861 302.238 210.916 302.282C211.146 302.465 211.402 306.038 211.319 307.919C211.24 309.736 210.754 315.721 210.657 316.086C210.605 316.279 210.642 316.508 210.748 316.659C210.846 316.798 210.928 317.225 210.93 317.607L210.934 318.303L212.011 318.76C213.179 319.256 214.789 319.552 215.1 319.328C215.376 319.13 215.165 318.748 214.554 318.342C213.86 317.882 213.714 317.702 213.732 317.333C213.741 317.157 213.669 316.93 213.574 316.828C213.318 316.556 213.373 316.349 213.758 316.125C214.085 315.935 214.103 315.875 214.161 314.797C214.195 314.176 214.325 312.97 214.451 312.118C214.886 309.153 215.054 307.155 215.237 302.757L215.421 298.332L215.989 298.44C216.838 298.6 217.061 298.373 217.087 297.315C217.099 296.856 217.013 295.502 216.897 294.308C216.688 292.162 216.706 291.782 217.008 291.935C217.094 291.978 217.251 291.942 217.359 291.855C217.614 291.65 218.9 289.326 219.399 288.171C219.614 287.674 219.843 287.193 219.908 287.102C220.168 286.742 219.591 284.165 218.624 281.367C218.427 280.797 218.194 280.019 218.105 279.639C218.017 279.258 217.881 278.836 217.803 278.702C217.684 278.495 216.461 277.667 216.26 277.657C216.225 277.655 215.903 277.48 215.546 277.267C215.189 277.054 214.87 276.879 214.837 276.877C214.803 276.875 214.508 276.659 214.181 276.397C213.618 275.947 213.587 275.888 213.614 275.325C213.637 274.877 213.74 274.601 214.03 274.221C214.576 273.501 214.723 272.597 214.416 271.826C214.288 271.504 214.187 271.162 214.192 271.067C214.209 270.729 213.747 269.654 213.472 269.39C213.043 268.98 211.73 268.815 211.124 269.095C210.119 269.559 209.843 270.336 209.842 272.7C209.841 274.277 209.861 274.411 210.192 275.01C210.611 275.769 210.613 275.824 210.241 276.186C209.96 276.46 208.51 277.273 208.32 277.263C207.958 277.245 206.608 278.102 206.101 278.67C205.547 279.292 205.486 279.429 205.242 280.595C205.098 281.286 204.856 282.643 204.705 283.611C204.554 284.579 204.36 285.751 204.273 286.215C204.112 287.082 203.82 289.333 203.578 291.572C203.503 292.271 203.364 293.381 203.269 294.04C203.01 295.828 203.014 296.028 203.304 296.132C203.538 296.216 203.546 296.287 203.425 297.176C203.277 298.257 203.412 298.84 203.972 299.527C204.242 299.86 204.368 299.916 204.713 299.858C204.942 299.819 205.237 299.704 205.369 299.602C205.594 299.429 205.598 299.393 205.43 299.058C205.289 298.776 205.282 298.612 205.397 298.287C205.51 297.97 205.506 297.747 205.38 297.336C205.176 296.665 205.171 296.701 205.489 296.583C205.717 296.498 205.766 296.355 205.834 295.576C206.008 293.579 206.398 290.667 206.609 289.787C206.732 289.274 206.842 288.657 206.854 288.415C206.866 288.173 206.927 287.978 206.99 287.981C207.115 287.987 206.984 289.647 206.687 291.797C206.43 293.665 206.192 296.444 206.263 296.763C206.295 296.909 206.392 297.033 206.478 297.037C206.709 297.048 206.694 298.63 206.405 304.554C206.266 307.395 206.173 310.488 206.198 311.425C206.222 312.363 206.241 313.832 206.239 314.691C206.237 315.798 206.283 316.287 206.399 316.373C206.706 316.602 206.535 317.031 205.81 317.854C205.09 318.67 204.948 319.124 205.421 319.096C205.541 319.089 205.86 319.071 206.13 319.056ZM216.104 285.95C216.032 285.322 215.953 284.552 215.929 284.239C215.886 283.699 215.899 283.714 216.164 284.534C216.318 285.01 216.461 285.605 216.481 285.857C216.501 286.109 216.587 286.388 216.671 286.478C216.796 286.611 216.783 286.712 216.601 287.04C216.324 287.536 216.273 287.423 216.104 285.95ZM178.825 317.56C179.394 317.426 179.343 317.236 178.567 316.594C177.856 316.004 177.05 315.153 177.057 315C177.061 314.932 177.201 314.883 177.368 314.891C177.722 314.908 177.751 314.75 177.546 313.931C177.465 313.608 177.338 312.78 177.265 312.09C176.862 308.324 176.608 306.454 176.229 304.476C174.947 297.783 174.994 298.283 175.651 298.375L176.106 298.44L176.231 297.594C176.3 297.13 176.47 296.18 176.61 295.485C176.75 294.789 176.889 293.731 176.919 293.134L176.973 292.047L177.945 291.553L178.916 291.059L179.04 289.256C179.151 287.644 179.26 287.196 179.446 287.591C179.479 287.661 179.752 287.804 180.053 287.908C180.355 288.013 180.625 288.186 180.655 288.293C180.684 288.4 180.607 288.857 180.482 289.31C180.218 290.266 179.945 292.179 179.618 295.35C179.406 297.416 179.156 299.424 178.881 301.286L178.775 302.002L179.292 302.312C179.577 302.483 180.229 302.797 180.74 303.01C181.44 303.302 181.681 303.469 181.712 303.684C181.734 303.841 181.891 305.206 182.061 306.717C182.415 309.859 182.377 310.406 181.748 311.231C181.198 311.953 180.814 312.754 180.841 313.123C180.867 313.486 181.346 313.628 181.899 313.435C182.242 313.316 182.254 313.329 182.359 313.963C182.65 315.723 183.54 316.894 183.967 316.079C184.173 315.683 184.201 314.451 184.027 313.395C183.899 312.618 183.905 312.29 184.062 311.401C184.244 310.375 184.737 307.938 185.087 306.334C185.18 305.91 185.308 305.217 185.371 304.794L185.485 304.027L186.573 303.835C188.069 303.571 188.266 303.417 188.309 302.482C188.327 302.075 188.322 301.134 188.298 300.392C188.274 299.649 188.245 298.53 188.233 297.906C188.21 296.704 187.74 291.804 187.506 290.34C187.332 289.247 187.357 288.746 187.613 288.245C187.905 287.672 187.885 287.452 187.439 286.355L187.039 285.37L187.257 283.879C187.533 281.984 187.656 279.544 187.507 278.912C187.342 278.212 187.123 277.943 186.256 277.371C185.1 276.608 185.041 276.529 185.064 275.785C185.082 275.184 185.127 275.095 185.651 274.622C185.963 274.34 186.38 274.005 186.579 273.878C186.881 273.684 186.941 273.559 186.945 273.115C186.949 272.824 187.022 272.408 187.109 272.193C187.369 271.545 187.092 270.476 186.48 269.766C185.572 268.714 185.247 268.527 184.245 268.478C183.491 268.44 183.249 268.482 183.034 268.687C182.297 269.388 181.646 271.185 181.737 272.269C181.788 272.889 182.021 273.547 182.193 273.555C182.241 273.557 182.465 273.767 182.69 274.02C183.43 274.853 183.093 275.755 181.85 276.273C181.575 276.387 181.157 276.499 180.921 276.521C180.269 276.583 180.121 276.679 179.671 277.332C179.395 277.733 179.124 278.41 178.861 279.353L178.466 280.771L178.18 279.918C177.935 279.184 177.392 278.425 177.103 278.411C177.021 278.407 175.702 277.641 175.636 277.558C175.615 277.533 175.807 277.228 176.061 276.88C176.316 276.532 176.574 276.012 176.636 275.724C176.818 274.871 176.884 272.836 176.747 272.264C176.491 271.188 175.401 270.398 174.351 270.527C173.161 270.674 172.653 271.4 172.274 273.496C172.059 274.688 172.059 274.706 172.343 275.414C172.5 275.808 172.624 276.232 172.617 276.358C172.604 276.619 171.489 277.475 170.237 278.183C169.767 278.449 169.29 278.726 169.177 278.798C168.859 279.002 167.966 280.503 167.702 281.279C167.193 282.77 166.646 285.173 166.398 287.002L166.268 287.959L167.067 288.989L167.865 290.019L167.818 291.468C167.792 292.266 167.785 293.11 167.803 293.345C167.821 293.58 167.849 294.156 167.865 294.625C167.932 296.517 168.039 296.816 168.847 297.364C169.45 297.772 169.544 297.906 169.829 298.758L170.144 299.699L169.893 300.399C169.628 301.138 168.596 303.589 167.961 304.988C167.358 306.316 167.25 306.579 166.732 307.978C166.462 308.706 165.977 310.011 165.653 310.877C165.219 312.04 165.097 312.502 165.187 312.642C165.261 312.757 165.265 313.092 165.198 313.491C165.106 314.039 165.124 314.187 165.308 314.364C165.429 314.482 165.634 314.586 165.764 314.595C165.893 314.604 166.216 314.742 166.482 314.902C167.197 315.333 168.092 315.679 168.704 315.762C169.143 315.822 169.258 315.789 169.303 315.59C169.336 315.441 169.284 315.341 169.168 315.336C169.064 315.33 168.749 315.043 168.468 314.698C168.045 314.176 167.972 314.004 168.042 313.683C168.088 313.47 168.067 313.204 167.996 313.093C167.891 312.93 167.937 312.865 168.225 312.764C168.542 312.654 168.597 312.556 168.679 311.955C168.793 311.119 171.905 304.616 172.184 304.63C172.567 304.649 173.136 306.777 173.626 310.023C173.727 310.691 173.894 311.798 173.998 312.484C174.102 313.169 174.178 313.909 174.167 314.128C174.156 314.351 174.25 314.638 174.379 314.781C174.547 314.964 174.603 315.21 174.58 315.663C174.541 316.446 174.719 316.684 175.463 316.847C175.782 316.917 176.313 317.076 176.643 317.202C177.325 317.461 178.457 317.647 178.825 317.56ZM180.357 285.007C180.134 284.749 180.11 283.629 180.32 283.287C180.414 283.134 180.55 283.601 180.822 285.016C180.883 285.334 180.635 285.329 180.357 285.007ZM98.3238 313.277C98.4425 312.979 98.4373 312.547 98.3004 311.325C98.103 309.563 98.1102 309.509 99.0144 306.04C99.2654 305.077 99.56 303.782 99.6692 303.163C99.9643 301.49 100.012 301.407 100.647 301.438C101.177 301.464 102.209 301.329 102.578 301.185C102.741 301.121 102.782 301.383 102.843 302.855C102.882 303.816 102.902 305.782 102.887 307.225C102.857 310.148 102.892 310.489 103.225 310.505C103.411 310.514 103.45 310.622 103.428 311.065C103.413 311.367 103.466 311.68 103.546 311.76C103.699 311.914 104.759 312.305 104.923 312.268C105.052 312.239 106.911 312.539 107.145 312.627C107.248 312.665 107.387 312.912 107.455 313.175C107.597 313.725 108.022 314.079 108.4 313.961C108.755 313.849 109 312.937 108.979 311.806C108.962 310.916 108.966 310.904 109.322 310.781C109.738 310.636 109.802 310.339 109.467 310.107C109.235 309.946 109.235 309.939 109.533 309.147C109.698 308.708 110.202 307.506 110.653 306.475C111.105 305.443 111.747 303.944 112.08 303.142C112.772 301.477 112.697 301.532 114.415 301.462C116.337 301.385 116.117 301.244 116.373 302.714C116.497 303.423 116.826 305.067 117.106 306.369C117.696 309.119 117.759 309.834 117.499 310.836C117.34 311.453 117.334 311.67 117.462 312.21C117.633 312.928 117.914 313.068 118.002 312.479C118.034 312.266 118.086 312.093 118.118 312.095C118.15 312.096 118.45 312.358 118.784 312.676C119.118 312.994 119.575 313.336 119.798 313.436C120.328 313.672 121.263 313.719 121.274 313.509C121.278 313.421 120.955 312.966 120.556 312.497C119.684 311.471 119.325 310.636 119.065 309.02C118.841 307.625 118.532 301.052 118.685 300.911C118.74 300.859 119.197 300.687 119.699 300.527C121.088 300.087 121.046 300.158 120.807 298.662C120.269 295.299 120.142 294.427 120.154 294.183C120.164 293.973 120.294 293.905 120.79 293.851C121.173 293.809 121.445 293.701 121.495 293.571C121.567 293.385 121.306 291.409 121.075 290.39C121.031 290.193 120.941 289.722 120.877 289.345C120.795 288.865 120.671 288.599 120.464 288.459C120.264 288.323 120.089 287.965 119.925 287.357C119.791 286.861 119.684 286.399 119.687 286.331C119.697 286.14 120.207 286.218 120.537 286.461C120.999 286.802 121.554 286.771 121.998 286.379C122.214 286.188 122.394 285.985 122.396 285.928C122.399 285.872 122.202 285.702 121.959 285.551C121.56 285.304 121.538 285.26 121.736 285.108C122.013 284.896 122.017 284.817 121.755 284.691C121.64 284.636 121.413 284.491 121.251 284.368C120.859 284.071 120.457 284.063 119.567 284.336L118.826 284.563L118.723 284.045C118.666 283.761 118.565 282.951 118.497 282.245C118.291 280.1 117.922 278.192 117.566 277.432C117.33 276.927 117.239 276.536 117.261 276.109C117.286 275.588 117.226 275.422 116.83 274.926C116.25 274.198 116.239 273.832 116.799 273.86C117.021 273.871 117.313 273.792 117.449 273.684C117.585 273.576 117.877 273.495 118.098 273.503C118.364 273.514 118.613 273.401 118.832 273.17C119.149 272.837 119.164 272.768 119.165 271.59C119.166 270.059 118.935 269.063 118.415 268.354C117.839 267.569 117.506 267.326 116.802 267.179C115.946 266.999 115.282 267.34 114.712 268.253C113.81 269.696 113.632 271.42 114.276 272.485C114.662 273.124 114.681 273.471 114.329 273.454C113.937 273.435 113.628 273.662 113.526 274.044C113.454 274.31 113.308 274.423 112.907 274.522C111.972 274.751 111.598 274.891 111.468 275.058C111.175 275.433 110.486 276.973 110.044 278.243C109.783 278.991 109.543 279.599 109.51 279.595C109.436 279.585 108.626 277.349 108.333 276.349C108.218 275.953 107.985 275.007 107.817 274.247C107.648 273.487 107.409 272.747 107.284 272.603C106.906 272.164 107.016 271.852 107.578 271.771C107.983 271.712 108.178 271.564 108.655 270.951C109.3 270.122 109.453 269.683 109.652 268.082C109.773 267.113 109.76 266.918 109.536 266.317C109.184 265.371 108.573 264.876 107.734 264.857C106.634 264.833 106.054 265.292 105.751 266.431C105.648 266.816 105.453 267.214 105.317 267.315C105.058 267.509 105.062 267.436 105.205 269.402C105.268 270.276 105 270.952 104.558 271.032C104.361 271.068 104.133 271.224 104.051 271.381C103.97 271.537 103.639 271.976 103.316 272.358C102.593 273.211 102.488 273.47 102.237 275.011L102.037 276.236L101.215 275.556C99.946 274.506 99.7536 274.219 99.7926 273.434C99.8218 272.843 99.8651 272.75 100.185 272.591C100.72 272.324 101.621 271.423 101.627 271.149C101.637 270.683 101.658 270.478 101.759 269.823C101.951 268.583 101.483 267.578 100.314 266.714C99.4594 266.084 98.5273 266.048 97.8503 266.619C97.5805 266.847 97.2213 267.287 97.0522 267.598C96.7176 268.213 96.3197 269.521 96.291 270.099C96.2656 270.612 96.6814 271.523 97.0493 271.76C97.6941 272.177 97.8693 272.486 97.7734 273.037C97.656 273.713 97.2388 274.094 96.4309 274.266C94.9296 274.584 94.8701 274.611 94.4747 275.172L94.0871 275.722L93.6915 274.599C93.2198 273.26 93.0757 273.038 92.3793 272.574C92.0865 272.379 91.7422 272.119 91.6143 271.996C91.3854 271.776 91.3872 271.768 91.7283 271.486C92.1979 271.098 92.4145 270.292 92.485 268.67C92.55 267.172 92.3633 266.406 91.7929 265.831C91.4051 265.44 90.3294 265.124 89.7265 265.225C88.7737 265.383 88.0418 266.38 87.9812 267.601C87.9661 267.907 87.8904 268.197 87.813 268.247C87.5525 268.415 87.6891 269.657 88.0248 270.172C88.5544 270.984 88.4099 271.22 86.9401 271.939C85.443 272.671 84.381 273.469 83.944 274.188C82.9135 275.886 81.7673 281.623 82.2206 282.814C82.2905 282.998 82.6441 283.515 83.0064 283.962L83.665 284.775L83.6558 287.825C83.6507 289.503 83.6818 291.069 83.7247 291.305C83.781 291.614 83.9556 291.84 84.3496 292.112C84.8555 292.462 84.9155 292.568 85.1507 293.539L85.405 294.589L84.9837 295.522C84.752 296.035 84.0418 297.546 83.4055 298.88C82.7692 300.214 82.0607 301.807 81.831 302.42C81.2446 303.986 80.3881 307.175 80.3883 307.792C80.3883 308.076 80.3366 308.51 80.2733 308.756C80.161 309.191 80.1712 309.207 80.6766 309.386C80.9618 309.487 81.626 309.754 82.1525 309.98C83.2182 310.436 84.6636 310.703 84.8033 310.469C84.9048 310.3 84.8094 310.185 84.009 309.514C83.4577 309.052 83.4263 308.991 83.4885 308.496C83.5276 308.185 83.5009 307.966 83.4232 307.962C83.3509 307.959 83.2965 307.86 83.3023 307.744C83.3081 307.627 83.3602 307.534 83.4181 307.537C83.476 307.539 83.6684 307.389 83.8456 307.203C84.08 306.957 84.2006 306.648 84.2881 306.071C84.3758 305.492 84.6603 304.765 85.3367 303.391C86.8093 300.4 87.3092 299.515 87.5274 299.515C87.7403 299.515 88.7846 303.174 88.7531 303.81C88.7452 303.968 88.7826 304.247 88.8361 304.429C88.8897 304.611 89.0324 305.722 89.1533 306.899C89.401 309.309 89.4791 309.682 89.7398 309.695C89.9249 309.704 90.0018 309.995 90.0244 310.773C90.0358 311.165 90.0851 311.212 90.6403 311.354C90.9722 311.439 91.6643 311.681 92.1784 311.891C93.3384 312.367 94.5964 312.478 94.553 312.101C94.5374 311.965 94.0632 311.463 93.4994 310.984C92.4611 310.102 92.279 309.776 92.7574 309.656C92.9641 309.605 93.0077 309.519 92.959 309.26C92.7327 308.058 92.1649 302.56 92.0446 300.405C92.0281 300.11 91.8321 299.111 91.6089 298.184C91.0375 295.812 90.6103 293.301 90.7616 293.203C90.8298 293.159 91.0145 293.168 91.1719 293.222C91.3293 293.277 91.493 293.263 91.5356 293.192C91.6269 293.039 92.1285 290.56 92.4331 288.757C92.7673 286.779 92.8079 286.666 93.2346 286.526C93.7872 286.346 94.0319 286.084 94.0534 285.651C94.0639 285.44 94.1058 285.232 94.1467 285.189C94.1875 285.146 94.5389 285.297 94.9275 285.524C95.5028 285.859 95.6216 285.988 95.5668 286.216C95.5298 286.371 95.3644 287.001 95.1994 287.617C95.0343 288.233 94.8195 289.117 94.7219 289.58C94.5455 290.418 93.872 295.803 93.6153 298.428L93.4807 299.804L93.9425 300.109C94.1964 300.277 94.7713 300.552 95.2199 300.719L96.0357 301.024L96.2296 302.723C96.6084 306.041 96.7255 307.862 96.5944 308.394C96.5195 308.698 96.2336 309.169 95.8896 309.556C95.2886 310.23 95.0322 310.753 95.2005 310.962C95.2543 311.028 95.5967 311.119 95.9613 311.163C96.6188 311.242 96.6253 311.248 96.741 311.816C96.9131 312.66 97.1624 313.215 97.468 313.434C97.8976 313.742 98.1577 313.695 98.3238 313.277ZM106.668 311.026L106.32 310.66L106.838 310.685C107.31 310.708 107.355 310.742 107.339 311.064C107.317 311.507 107.116 311.496 106.668 311.026ZM107.538 308.902C107.426 308.779 107.341 308.551 107.349 308.396C107.357 308.24 107.145 307.855 106.879 307.54L106.396 306.967L106.819 306.596C107.296 306.178 107.284 306.229 107.615 302.99C107.727 301.903 107.932 300.476 108.071 299.82C108.21 299.163 108.428 297.705 108.554 296.58C108.681 295.455 108.852 293.931 108.935 293.195L109.085 291.856L109.669 291.572C110.452 291.19 110.664 290.843 110.713 289.853C110.735 289.408 110.8 289.013 110.857 288.976C110.915 288.939 111.153 289.147 111.386 289.438C111.806 289.961 111.809 289.975 111.706 290.901C111.649 291.415 111.532 292.599 111.446 293.531C111.266 295.478 110.961 297.096 110.447 298.827C110.249 299.494 110.044 300.452 109.991 300.956C109.939 301.46 109.829 302.082 109.748 302.338C109.324 303.68 108.062 308.805 108.038 309.285C108.034 309.363 107.781 309.17 107.538 308.902ZM103.19 297.485C103.172 297.035 103.121 296.346 103.077 295.954C102.884 294.249 102.669 291.709 102.714 291.661C102.741 291.633 103.099 291.668 103.51 291.738L104.257 291.867L104.223 292.547C104.205 292.922 104.123 293.531 104.041 293.902C103.96 294.272 103.786 295.416 103.656 296.444C103.525 297.471 103.374 298.31 103.32 298.307C103.266 298.304 103.208 297.934 103.19 297.485ZM102.207 288.655C101.995 287.269 102.012 286.561 102.262 286.343C102.646 286.008 102.654 285.425 102.29 284.324C101.991 283.42 101.947 283.096 101.984 282.065C102.048 280.268 102.182 280.09 102.431 281.469C102.546 282.104 102.755 283.101 102.896 283.685C103.25 285.15 103.254 286.532 102.909 288.425C102.593 290.162 102.48 290.551 102.421 290.103C102.401 289.946 102.304 289.295 102.207 288.655ZM119.249 286.362C119.332 286.274 119.5 286.764 119.665 287.581C119.777 288.135 119.778 288.337 119.669 288.374C119.53 288.422 119.126 286.491 119.249 286.362ZM111.7 286.109C111.483 285.637 111.207 284.952 111.088 284.586C110.881 283.95 110.882 283.883 111.108 283.056C111.39 282.022 111.426 281.972 111.558 282.416C111.615 282.604 111.83 283.286 112.038 283.93C112.346 284.886 112.407 285.274 112.369 286.039C112.343 286.555 112.271 286.974 112.209 286.971C112.147 286.968 111.918 286.58 111.7 286.109ZM94.9639 282.802C94.8694 282.688 94.8614 282.371 94.939 281.815C95.0018 281.365 95.0903 281.051 95.1356 281.116C95.181 281.181 95.3078 281.671 95.4174 282.206L95.6168 283.179L95.36 283.075C95.2187 283.018 95.0405 282.895 94.9639 282.802Z" fill="black"/>
<path d="M198.635 73.5845C197.022 73.351 196.86 72.5764 195.036 72.5774C194.234 72.5774 192.862 73.0779 192.86 71.7108C192.86 71.3286 193.344 70.1282 193.233 69.2972C193.167 68.7934 193.415 68.2907 193.142 67.9477C192.663 67.347 193.234 65.2584 193.331 64.5007C193.331 64.5007 193.216 63.0814 193.353 61.3087C193.584 58.3135 193.844 57.8798 193.928 57.1251C193.986 56.6019 194.021 56.6426 193.956 56.5755C193.806 56.4209 192.36 56.8331 192.104 56.9176C191.025 57.273 184.241 58.176 183.906 58.3823C183.657 58.5363 183.624 59.0037 183.365 59.1454C183.274 59.1948 182.431 59.2145 182.258 59.1233C181.346 58.6365 182.331 57.1413 183.202 56.6988C184.903 55.8354 184.917 53.5822 186.036 53.5783C186.602 53.5783 187.521 54.7369 187.934 54.3918C188.278 54.1053 193.479 52.9474 193.634 52.3416C193.901 51.299 191.407 43.7528 191.248 43.5931C189.398 41.7322 189.033 38.3887 190.513 35.9661C191.209 34.8273 190.996 34.996 191.357 34.639C191.544 34.4538 191.645 34.3745 191.711 33.6547C191.834 32.3128 193.044 32.7043 192.825 32.0037C192.625 31.3624 192.936 30.8441 193.433 30.6563C194.215 30.3614 193.122 30.1891 193.416 29.5293C193.54 29.2513 193.588 28.5892 193.431 28.3286C192.984 27.5855 194.207 27.7037 193.207 26.6612C192.719 26.1525 192.815 26.1698 192.514 26.0165C191.926 25.7179 192.018 25.482 191.777 25.8015C191.433 26.2573 191.875 25.1859 191.255 25.7862C190.22 26.7911 189.271 27.2537 188.145 27.6065C186.334 28.1744 186.803 28.1171 185.674 27.9648C185.148 27.8935 185.197 27.9264 184.369 27.0935C182.622 25.3363 182.738 25.3167 182.738 24.9457C182.738 24.391 182.608 24.638 182.253 23.7895C181.861 22.8542 181.621 22.7493 181.674 22.4409C181.792 21.7641 181.974 21.8 181.612 21.3159C181.267 20.8544 180.679 19.8985 180.596 19.092C180.535 18.5017 179.652 17.076 180.154 17.0718C180.399 17.0718 180.577 17.9899 180.916 18.3502C181.059 18.5024 181.166 18.2571 181.166 18.1233C181.166 18.0524 180.617 16.0757 180.617 15.8411C180.617 15.4929 180.893 15.4917 180.997 15.7171C181.047 15.8266 181.609 17.4926 181.672 17.5627C181.976 17.8997 181.601 16.5271 181.398 15.3481C181.252 14.4946 181.973 14.6288 182.274 16.7061C182.326 17.0602 182.429 17.5757 182.648 17.2157C182.78 17.0008 182.798 14.8695 182.917 14.7679C183.031 14.6709 183.207 14.7259 183.283 14.9915C183.585 16.0543 183.071 17.6317 183.828 18.6192C184.265 19.1925 184.097 16.625 184.673 16.8682C184.832 16.9358 185.018 19.212 184.234 20.7701C184.062 21.1134 184.022 20.891 184.897 22.1719C185.306 22.7703 185.747 23.1081 185.909 23.54C186.476 25.0507 188.966 22.6161 189.584 21.5133C190.155 20.4938 190.481 20.3319 190.586 19.9037C190.752 19.2202 191.155 19.454 191.225 18.5557C191.817 11.0999 191.347 9.96756 192.941 9.04176C193.546 8.69071 193.447 8.62582 193.879 8.60134C195.022 8.53739 194.75 8.26166 195.373 8.42367C196.21 8.64161 195.908 8.69766 196.536 8.90677C197.906 9.36298 197.781 9.94936 198.286 11.1433C198.74 12.2198 199.12 13.0406 199.106 13.9029C199.085 15.1892 199.441 14.2239 200.016 13.9997C200.455 13.8283 200.569 13.4768 200.684 13.202C200.899 12.6869 201.017 12.6987 201.248 12.352C201.883 11.3957 201.298 11.9175 201.681 10.5889C201.996 9.49436 201.485 9.959 201.647 8.84001C201.667 8.70623 201.751 7.57601 201.529 7.43727C201.409 7.36222 200.495 7.02802 200.268 6.97584C199.61 6.82533 199.94 6.45702 200.45 6.43963C200.711 6.43027 200.735 6.42157 200.732 6.32926C200.706 5.39356 196.934 5.44761 197.565 4.86109C197.766 4.67433 198.219 4.79153 197.453 4.44061C196.785 4.13531 197.351 3.98921 197.492 3.76539C197.689 3.45434 197.73 3.69529 198.805 3.60378C201.681 4.29826 201.317 4.31726 202.331 5.46969C202.557 5.72508 202.675 5.91573 202.748 6.13982C203.025 6.99404 203.286 6.16336 203.888 7.83047C204.061 8.30741 204.732 9.348 204.861 10.0442C204.924 10.3812 204.789 10.5131 204.927 10.98C205.09 11.5331 204.932 11.4847 204.912 12.0835C204.84 14.1819 202.998 15.805 201.883 16.9674C201.394 17.4773 200.62 18.4064 200.294 18.7345C199.673 19.3588 199.879 19.3124 200.272 19.9002C200.467 20.1911 200.457 20.1727 200.859 20.4254C200.679 20.607 200.729 20.5893 201.044 21.1504C201.734 22.3778 201.319 22.1906 202.317 23.7229C202.913 24.637 202.837 24.8711 202.84 25.997C202.843 27.4068 203.154 30.2845 203.154 30.2845C203.035 31.735 202.603 31.7155 202.54 32.626C202.515 32.9842 202.442 33.1759 202.413 32.7745C202.393 32.4951 202.354 32.4009 202.269 32.4225C202.088 32.4683 202.166 32.9668 201.987 33.99C201.853 34.7509 201.133 35.4717 201.08 35.6054C201.076 35.616 201.082 35.8935 201.061 35.9766C200.975 36.3162 200.751 36.4967 200.658 36.7377C200.51 37.1208 200.879 37.5175 199.825 39.0785C198.844 40.5318 198.854 40.394 199.177 40.7606C200.168 41.8877 202.474 47.4708 202.961 48.6532C205.27 54.2614 203.224 54.8645 198.989 55.8151C197.252 56.2053 198.827 55.9429 196.891 64.1509C196.615 65.322 196.602 65.4275 196.586 65.7075C196.546 66.4408 196.248 66.7679 196.248 67.3778C196.248 67.6066 196.408 67.6712 196.393 67.8546C196.391 67.8832 196.235 68.255 196.226 68.5576C196.213 69.0058 196.044 69.0791 196.162 69.4722C196.317 69.9858 196.787 70.1925 197.42 70.8166C198.961 72.3362 199.962 71.6203 200.162 72.4832C200.296 73.0637 199.726 73.4674 199.342 73.5687C199.213 73.6027 198.824 73.611 198.635 73.5837V73.5845Z" fill="#5170FF"/>
<path d="M287.904 180.728C287.243 181.056 283.585 181.977 283.105 181.263C282.837 180.864 282.91 180.401 282.606 179.45C282.337 178.607 281.6 179.182 281.149 177.883C279.402 172.865 277.999 173.317 277.276 167.519C277.229 167.147 277.208 166.907 276.929 166.604C276.022 165.615 277.028 165.48 276.159 164.866C275.688 164.534 274.001 161.897 272.875 160.733C272.667 160.517 272.617 160.48 272.456 160.27C272.051 159.737 271.951 160.031 271.698 159.728C271.578 159.583 271.576 159.38 271.464 159.274C271.274 159.096 270.773 159.109 270.437 158.712C270.354 158.614 270.303 158.586 270.031 158.407C269.215 157.014 269.081 157.491 268.763 157.008C268.66 156.852 267.649 154.75 267.584 154.687C267.297 154.402 265.487 155.128 265.345 154.579C265.184 153.952 264.497 149.777 264.121 147.993C263.936 147.116 263.66 146.861 263.221 145.431C262.909 144.416 262.651 144.746 261.569 142.888C261.106 142.092 261.216 142.326 260.579 141.535C260.127 140.975 260.045 140.868 259.576 140.701C258.345 140.261 258.27 139.881 257.633 139.531C256.386 138.846 256.63 139.724 255.052 138.424C254.975 138.36 254.924 138.254 254.754 137.964C253.175 136.469 253.822 136.264 251.926 133.537C250.654 131.707 250.465 132.305 251.256 131.216C251.516 130.858 251.654 130.991 250.937 129.262C250.795 128.92 250.452 128.308 250.159 127.997C249.476 127.273 249.288 126.548 248.808 126.036C247.261 124.388 247.388 123.974 247.773 124.202C248.017 124.347 248.464 125.023 248.478 124.775C248.489 124.567 247.375 123.078 247.887 123.016C248.112 122.985 248.446 123.732 248.454 123.429C248.457 123.318 248.156 122.842 248.135 122.698C248.109 122.518 248.286 122.359 248.557 122.648C248.846 122.954 249.79 124.767 249.997 124.746C250.116 124.735 249.973 124.476 249.914 124.374C249.72 124.039 249.589 123.624 249.439 123.31C249.121 122.644 249.143 122.557 249.231 122.489C249.472 122.302 249.724 122.858 249.912 123.179C250.172 123.624 251.464 125.714 251.889 125.467C252.193 125.291 251.365 123.87 251.957 123.625C252.282 123.491 252.42 124.323 252.549 124.807C253.3 127.631 251.665 126.784 252.935 129.12C253.585 130.316 257.325 135.385 257.675 135.491C257.82 135.535 258.74 135.799 259.042 135.763C259.589 135.697 259.615 136.026 259.771 135.491C260.147 134.196 261.26 134.635 262.177 135.043C263.003 135.411 263.011 135.155 263.616 135.437C264.225 135.721 264.329 134.822 264.075 134.659C263.781 134.472 263.828 134.367 263.608 133.351C263.48 132.756 263.342 132.877 263.389 132.452C263.462 131.804 263.278 131.552 263.418 130.971C263.69 129.84 263.24 130.369 264.179 129.367C264.457 129.071 265.475 128.215 265.866 128.223C266.051 128.226 266.438 128.058 266.525 128.08C266.741 128.135 266.525 128.27 267.007 128.296C267.318 128.312 267.535 128.234 267.767 128.454C268.048 128.718 268.452 128.753 268.55 128.922C268.55 128.922 268.554 129.058 268.813 129.524C269.254 130.319 268.974 130.093 269.223 130.598C269.724 131.613 269.02 131.885 268.919 133.914C268.828 135.74 268.3 135.375 268.158 136.673C268.133 136.907 268.115 137.029 268.62 137.184C268.873 137.261 268.857 137.437 268.976 137.526C268.976 137.526 269.593 137.712 269.923 137.891C270.814 138.374 271.036 138.054 271.969 138.667C273.024 139.36 273.228 139.849 273.894 140.246C273.984 140.3 274.068 140.381 274.143 140.451C274.81 141.576 274.936 141.978 275.338 141.782C275.562 141.672 275.608 141.497 275.589 141.286C275.557 140.922 275.96 140.555 276.202 140.024C276.34 139.721 276.2 139.601 276.397 139.004C276.661 138.202 276.502 138.541 276.639 137.93C276.927 136.639 277.424 136.162 276.632 135.177C276.311 134.775 276.228 133.546 276.203 133.432C276.046 132.691 276.564 133.628 276.517 132.853C276.409 131.079 276.993 130.545 277.028 131.337C277.034 131.461 276.963 133.035 277.164 132.918C277.206 132.894 277.219 132.857 277.236 132.716C277.258 132.536 277.373 132.115 277.464 131.886C277.9 130.777 278.176 131.073 278.168 131.256C278.162 131.387 277.554 133.012 277.898 133.061C278.089 133.088 278.127 132.667 278.402 132.51C278.891 132.226 279.502 132.575 278.983 132.752C278.522 132.91 278.237 133.882 278.765 133.249C279.058 132.897 279.3 133.042 279.383 133.185C279.539 133.453 279.245 133.422 279.11 133.66C278.95 133.943 279.116 134.574 279.004 135.217C278.868 135.999 278.61 136.252 278.623 136.907C278.63 137.224 278.593 137.149 279.711 137.681C280.404 138.011 280.338 137.928 280.018 138.821C279.936 139.051 277.746 144.97 277.39 145.338C277.118 145.62 277.122 145.158 279.027 149.879C279.661 151.453 279.887 151.484 279.746 151.761C279.677 151.897 279.697 151.891 279.895 152.035C280.894 152.766 280.971 152.482 281.326 152.977C281.628 153.397 281.717 153.087 281.961 153.447C282.062 153.596 281.953 153.519 284.004 155.137C285.078 155.983 284.275 155.5 285.983 156.841C286.615 157.337 287.109 157.709 287.448 158.345C287.874 159.143 287.801 160.204 287.92 160.522C288.12 161.054 287.616 161.019 288.065 161.821C288.079 162.295 287.948 161.657 289.558 165.72C290.925 169.169 290.575 168.257 291.249 168.747C291.702 169.077 291.512 169.684 291.929 169.921C292.089 170.012 292.439 170.174 292.549 170.721C292.708 171.509 296.131 171.891 296.276 171.885C296.545 171.872 296.703 171.767 297.198 171.866C297.827 171.991 297.997 173.122 295.611 174.065C295.081 174.275 295.137 174.128 294.45 174.17C293.716 174.215 291.247 174.724 291.247 174.724C290.466 174.684 290.553 174.243 289.811 172.955C289.49 172.396 289.469 172.348 289.438 172.119C289.386 171.738 289.117 171.701 288.936 171.393C288.77 171.106 288.857 171.091 288.576 170.864C287.308 169.839 288.345 170.166 285.513 166.045C284.169 163.67 284.306 161.358 283.422 161.187C282.702 161.048 282.717 160.438 282.003 160.374C281.207 160.302 280.274 159.961 279.725 159.87C278.575 159.679 278.962 159.315 280.35 162.865C280.825 164.079 280.521 163.921 280.968 164.996C281.127 165.377 281.494 166.47 281.396 166.874C281.307 167.238 281.436 167.564 281.378 167.815C281.306 168.122 281.162 168.024 281.344 168.352C281.359 168.38 282.991 173.614 282.924 173.499C283.357 174.246 283.026 174.566 283.396 175.208C283.609 175.575 283.725 175.512 283.837 175.821C283.959 176.16 284.108 176.052 284.344 176.458C284.901 177.42 284.766 178.575 286.927 178.618C287.59 178.631 288.116 178.807 288.75 178.881C289.043 178.916 289.269 179.183 289.307 179.431C289.376 179.873 288.936 180.202 287.904 180.728Z" fill="#5170FF"/>
</svg>
